<?xml version="1.0" encoding="UTF-8"?>
<svg version="1.1" xmlns="http://www.w3.org/2000/svg" width="96" height="96">
<path d="M0 0 C1.98 0 3.96 0 6 0 C6 3.96 6 7.92 6 12 C4.02 12 2.04 12 0 12 C0 13.98 0 15.96 0 18 C3.96 18 7.92 18 12 18 C12 19.98 12 21.96 12 24 C15.96 24 19.92 24 24 24 C24 25.98 24 27.96 24 30 C25.98 30 27.96 30 30 30 C30 39.9 30 49.8 30 60 C28.02 60 26.04 60 24 60 C24 61.98 24 63.96 24 66 C22.02 66 20.04 66 18 66 C18 67.98 18 69.96 18 72 C16.02 72 14.04 72 12 72 C12 73.98 12 75.96 12 78 C0.12 78 -11.76 78 -24 78 C-24 76.02 -24 74.04 -24 72 C-25.98 72 -27.96 72 -30 72 C-30 70.02 -30 68.04 -30 66 C-31.98 66 -33.96 66 -36 66 C-36 64.02 -36 62.04 -36 60 C-37.98 60 -39.96 60 -42 60 C-42 50.1 -42 40.2 -42 30 C-40.02 30 -38.04 30 -36 30 C-36 28.02 -36 26.04 -36 24 C-32.04 24 -28.08 24 -24 24 C-24 22.02 -24 20.04 -24 18 C-18.06 18 -12.12 18 -6 18 C-6 14.04 -6 10.08 -6 6 C-4.02 6 -2.04 6 0 6 C0 4.02 0 2.04 0 0 Z " fill="#FFD146" transform="translate(54,8)"/>
<path d="M0 0 C3.96 0 7.92 0 12 0 C12 1.98 12 3.96 12 6 C13.98 6 15.96 6 18 6 C18 15.9 18 25.8 18 36 C16.02 36 14.04 36 12 36 C12 37.98 12 39.96 12 42 C10.02 42 8.04 42 6 42 C6 43.98 6 45.96 6 48 C4.02 48 2.04 48 0 48 C0 49.98 0 51.96 0 54 C-11.88 54 -23.76 54 -36 54 C-36 52.02 -36 50.04 -36 48 C-37.98 48 -39.96 48 -42 48 C-42 46.02 -42 44.04 -42 42 C-43.98 42 -45.96 42 -48 42 C-48 40.02 -48 38.04 -48 36 C-49.98 36 -51.96 36 -54 36 C-54 26.1 -54 16.2 -54 6 C-52.02 6 -50.04 6 -48 6 C-48 13.92 -48 21.84 -48 30 C-46.02 30 -44.04 30 -42 30 C-42 31.98 -42 33.96 -42 36 C-40.02 36 -38.04 36 -36 36 C-36 37.98 -36 39.96 -36 42 C-34.02 42 -32.04 42 -30 42 C-30 43.98 -30 45.96 -30 48 C-28.02 48 -26.04 48 -24 48 C-24 46.02 -24 44.04 -24 42 C-20.04 42 -16.08 42 -12 42 C-12 43.98 -12 45.96 -12 48 C-10.02 48 -8.04 48 -6 48 C-6 46.02 -6 44.04 -6 42 C-4.02 42 -2.04 42 0 42 C0 40.02 0 38.04 0 36 C1.98 36 3.96 36 6 36 C6 34.02 6 32.04 6 30 C7.98 30 9.96 30 12 30 C12 24.06 12 18.12 12 12 C10.02 12 8.04 12 6 12 C6 10.02 6 8.04 6 6 C4.02 6 2.04 6 0 6 C0 4.02 0 2.04 0 0 Z " fill="#91351B" transform="translate(66,32)"/>
<path d="M0 0 C1.98 0 3.96 0 6 0 C6 1.98 6 3.96 6 6 C13.92 6 21.84 6 30 6 C30 9.96 30 13.92 30 18 C26.04 18 22.08 18 18 18 C18 19.98 18 21.96 18 24 C16.02 24 14.04 24 12 24 C12 25.98 12 27.96 12 30 C8.04 30 4.08 30 0 30 C0 28.02 0 26.04 0 24 C-1.98 24 -3.96 24 -6 24 C-6 18.06 -6 12.12 -6 6 C-4.02 6 -2.04 6 0 6 C0 4.02 0 2.04 0 0 Z " fill="#FFF176" transform="translate(30,32)"/>
<path d="M0 0 C3.96 0 7.92 0 12 0 C12 1.98 12 3.96 12 6 C10.02 6 8.04 6 6 6 C6 11.94 6 17.88 6 24 C7.98 24 9.96 24 12 24 C12 25.98 12 27.96 12 30 C15.96 30 19.92 30 24 30 C24 28.02 24 26.04 24 24 C27.96 24 31.92 24 36 24 C36 25.98 36 27.96 36 30 C34.02 30 32.04 30 30 30 C30 33.96 30 37.92 30 42 C28.02 42 26.04 42 24 42 C24 43.98 24 45.96 24 48 C22.02 48 20.04 48 18 48 C18 46.02 18 44.04 18 42 C16.02 42 14.04 42 12 42 C12 40.02 12 38.04 12 36 C10.02 36 8.04 36 6 36 C6 34.02 6 32.04 6 30 C4.02 30 2.04 30 0 30 C0 20.1 0 10.2 0 0 Z " fill="#FFB300" transform="translate(18,32)"/>
<path d="M0 0 C1.98 0 3.96 0 6 0 C6 3.96 6 7.92 6 12 C4.02 12 2.04 12 0 12 C0 13.98 0 15.96 0 18 C3.96 18 7.92 18 12 18 C12 19.98 12 21.96 12 24 C8.04 24 4.08 24 0 24 C0 25.98 0 27.96 0 30 C-5.94 30 -11.88 30 -18 30 C-18 28.02 -18 26.04 -18 24 C-19.98 24 -21.96 24 -24 24 C-24 22.02 -24 20.04 -24 18 C-18.06 18 -12.12 18 -6 18 C-6 14.04 -6 10.08 -6 6 C-4.02 6 -2.04 6 0 6 C0 4.02 0 2.04 0 0 Z " fill="#873518" transform="translate(54,8)"/>
<path d="M0 0 C1.98 0 3.96 0 6 0 C6 1.98 6 3.96 6 6 C13.92 6 21.84 6 30 6 C30 7.98 30 9.96 30 12 C20.1 12 10.2 12 0 12 C0 8.04 0 4.08 0 0 Z " fill="#FFFDF0" transform="translate(30,32)"/>
<path d="M0 0 C3.96 0 7.92 0 12 0 C12 1.98 12 3.96 12 6 C13.98 6 15.96 6 18 6 C18 7.98 18 9.96 18 12 C14.04 12 10.08 12 6 12 C6 10.02 6 8.04 6 6 C4.02 6 2.04 6 0 6 C0 4.02 0 2.04 0 0 Z " fill="#AF5D25" transform="translate(66,32)"/>
<path d="M0 0 C1.98 0 3.96 0 6 0 C6 3.96 6 7.92 6 12 C4.02 12 2.04 12 0 12 C0 13.98 0 15.96 0 18 C-1.98 18 -3.96 18 -6 18 C-6 14.04 -6 10.08 -6 6 C-4.02 6 -2.04 6 0 6 C0 4.02 0 2.04 0 0 Z " fill="#9B351E" transform="translate(54,8)"/>
<path d="M0 0 C1.98 0 3.96 0 6 0 C6 5.94 6 11.88 6 18 C4.02 18 2.04 18 0 18 C0 12.06 0 6.12 0 0 Z " fill="#FFD54F" transform="translate(72,44)"/>
<path d="M0 0 C1.98 0 3.96 0 6 0 C6 3.96 6 7.92 6 12 C2.04 12 -1.92 12 -6 12 C-6 10.02 -6 8.04 -6 6 C-4.02 6 -2.04 6 0 6 C0 4.02 0 2.04 0 0 Z " fill="#FFD54F" transform="translate(36,50)"/>
<path d="M0 0 C1.98 0 3.96 0 6 0 C6 5.94 6 11.88 6 18 C4.02 18 2.04 18 0 18 C0 12.06 0 6.12 0 0 Z " fill="#FFF176" transform="translate(66,44)"/>
<path d="M0 0 C3.96 0 7.92 0 12 0 C12 3.96 12 7.92 12 12 C10.02 12 8.04 12 6 12 C6 10.02 6 8.04 6 6 C4.02 6 2.04 6 0 6 C0 4.02 0 2.04 0 0 Z " fill="#AF5D25" transform="translate(30,26)"/>
<path d="M0 0 C3.96 0 7.92 0 12 0 C12 1.98 12 3.96 12 6 C8.04 6 4.08 6 0 6 C0 4.02 0 2.04 0 0 Z " fill="#873518" transform="translate(54,80)"/>
<path d="M0 0 C3.96 0 7.92 0 12 0 C12 1.98 12 3.96 12 6 C8.04 6 4.08 6 0 6 C0 4.02 0 2.04 0 0 Z " fill="#AF5D25" transform="translate(42,74)"/>
<path d="M0 0 C1.98 0 3.96 0 6 0 C6 3.96 6 7.92 6 12 C4.02 12 2.04 12 0 12 C0 8.04 0 4.08 0 0 Z " fill="#AF5D25" transform="translate(12,38)"/>
<path d="M0 0 C3.96 0 7.92 0 12 0 C12 1.98 12 3.96 12 6 C8.04 6 4.08 6 0 6 C0 4.02 0 2.04 0 0 Z " fill="#FFB300" transform="translate(18,32)"/>
<path d="M0 0 C3.96 0 7.92 0 12 0 C12 1.98 12 3.96 12 6 C8.04 6 4.08 6 0 6 C0 4.02 0 2.04 0 0 Z " fill="#9B351E" transform="translate(54,26)"/>
<path d="M0 0 C1.98 0 3.96 0 6 0 C6 3.96 6 7.92 6 12 C4.02 12 2.04 12 0 12 C0 8.04 0 4.08 0 0 Z " fill="#873518" transform="translate(54,8)"/>
<path d="M0 0 C1.98 0 3.96 0 6 0 C6 1.98 6 3.96 6 6 C4.02 6 2.04 6 0 6 C0 4.02 0 2.04 0 0 Z " fill="#873518" transform="translate(30,80)"/>
<path d="M0 0 C1.98 0 3.96 0 6 0 C6 1.98 6 3.96 6 6 C4.02 6 2.04 6 0 6 C0 4.02 0 2.04 0 0 Z " fill="#AF5D25" transform="translate(60,74)"/>
<path d="M0 0 C1.98 0 3.96 0 6 0 C6 1.98 6 3.96 6 6 C4.02 6 2.04 6 0 6 C0 4.02 0 2.04 0 0 Z " fill="#FFB300" transform="translate(54,74)"/>
<path d="M0 0 C1.98 0 3.96 0 6 0 C6 1.98 6 3.96 6 6 C4.02 6 2.04 6 0 6 C0 4.02 0 2.04 0 0 Z " fill="#AF5D25" transform="translate(30,74)"/>
<path d="M0 0 C1.98 0 3.96 0 6 0 C6 1.98 6 3.96 6 6 C4.02 6 2.04 6 0 6 C0 4.02 0 2.04 0 0 Z " fill="#873518" transform="translate(24,74)"/>
<path d="M0 0 C1.98 0 3.96 0 6 0 C6 1.98 6 3.96 6 6 C4.02 6 2.04 6 0 6 C0 4.02 0 2.04 0 0 Z " fill="#AF5D25" transform="translate(66,68)"/>
<path d="M0 0 C1.98 0 3.96 0 6 0 C6 1.98 6 3.96 6 6 C4.02 6 2.04 6 0 6 C0 4.02 0 2.04 0 0 Z " fill="#FFB300" transform="translate(60,68)"/>
<path d="M0 0 C1.98 0 3.96 0 6 0 C6 1.98 6 3.96 6 6 C4.02 6 2.04 6 0 6 C0 4.02 0 2.04 0 0 Z " fill="#FFD54F" transform="translate(36,68)"/>
<path d="M0 0 C1.98 0 3.96 0 6 0 C6 1.98 6 3.96 6 6 C4.02 6 2.04 6 0 6 C0 4.02 0 2.04 0 0 Z " fill="#AF5D25" transform="translate(24,68)"/>
<path d="M0 0 C1.98 0 3.96 0 6 0 C6 1.98 6 3.96 6 6 C4.02 6 2.04 6 0 6 C0 4.02 0 2.04 0 0 Z " fill="#873518" transform="translate(18,68)"/>
<path d="M0 0 C1.98 0 3.96 0 6 0 C6 1.98 6 3.96 6 6 C4.02 6 2.04 6 0 6 C0 4.02 0 2.04 0 0 Z " fill="#AF5D25" transform="translate(72,62)"/>
<path d="M0 0 C1.98 0 3.96 0 6 0 C6 1.98 6 3.96 6 6 C4.02 6 2.04 6 0 6 C0 4.02 0 2.04 0 0 Z " fill="#FFB300" transform="translate(66,62)"/>
<path d="M0 0 C1.98 0 3.96 0 6 0 C6 1.98 6 3.96 6 6 C4.02 6 2.04 6 0 6 C0 4.02 0 2.04 0 0 Z " fill="#FFD54F" transform="translate(60,62)"/>
<path d="M0 0 C1.98 0 3.96 0 6 0 C6 1.98 6 3.96 6 6 C4.02 6 2.04 6 0 6 C0 4.02 0 2.04 0 0 Z " fill="#FFB300" transform="translate(54,62)"/>
<path d="M0 0 C1.98 0 3.96 0 6 0 C6 1.98 6 3.96 6 6 C4.02 6 2.04 6 0 6 C0 4.02 0 2.04 0 0 Z " fill="#AF5D25" transform="translate(18,62)"/>
<path d="M0 0 C1.98 0 3.96 0 6 0 C6 1.98 6 3.96 6 6 C4.02 6 2.04 6 0 6 C0 4.02 0 2.04 0 0 Z " fill="#FFB300" transform="translate(72,56)"/>
<path d="M0 0 C1.98 0 3.96 0 6 0 C6 1.98 6 3.96 6 6 C4.02 6 2.04 6 0 6 C0 4.02 0 2.04 0 0 Z " fill="#FFB300" transform="translate(60,56)"/>
<path d="M0 0 C1.98 0 3.96 0 6 0 C6 1.98 6 3.96 6 6 C4.02 6 2.04 6 0 6 C0 4.02 0 2.04 0 0 Z " fill="#FFD54F" transform="translate(24,50)"/>
<path d="M0 0 C1.98 0 3.96 0 6 0 C6 1.98 6 3.96 6 6 C4.02 6 2.04 6 0 6 C0 4.02 0 2.04 0 0 Z " fill="#9B351E" transform="translate(78,44)"/>
<path d="M0 0 C1.98 0 3.96 0 6 0 C6 1.98 6 3.96 6 6 C4.02 6 2.04 6 0 6 C0 4.02 0 2.04 0 0 Z " fill="#FFB300" transform="translate(72,44)"/>
<path d="M0 0 C1.98 0 3.96 0 6 0 C6 1.98 6 3.96 6 6 C4.02 6 2.04 6 0 6 C0 4.02 0 2.04 0 0 Z " fill="#AF5D25" transform="translate(78,38)"/>
<path d="M0 0 C1.98 0 3.96 0 6 0 C6 1.98 6 3.96 6 6 C4.02 6 2.04 6 0 6 C0 4.02 0 2.04 0 0 Z " fill="#9B351E" transform="translate(72,38)"/>
<path d="M0 0 C1.98 0 3.96 0 6 0 C6 1.98 6 3.96 6 6 C4.02 6 2.04 6 0 6 C0 4.02 0 2.04 0 0 Z " fill="#FFB300" transform="translate(66,38)"/>
<path d="M0 0 C1.98 0 3.96 0 6 0 C6 1.98 6 3.96 6 6 C4.02 6 2.04 6 0 6 C0 4.02 0 2.04 0 0 Z " fill="#FFF176" transform="translate(60,38)"/>
<path d="M0 0 C1.98 0 3.96 0 6 0 C6 1.98 6 3.96 6 6 C4.02 6 2.04 6 0 6 C0 4.02 0 2.04 0 0 Z " fill="#FFF9C4" transform="translate(54,38)"/>
<path d="M0 0 C1.98 0 3.96 0 6 0 C6 1.98 6 3.96 6 6 C4.02 6 2.04 6 0 6 C0 4.02 0 2.04 0 0 Z " fill="#FFD54F" transform="translate(54,32)"/>
<path d="M0 0 C1.98 0 3.96 0 6 0 C6 1.98 6 3.96 6 6 C4.02 6 2.04 6 0 6 C0 4.02 0 2.04 0 0 Z " fill="#AF5D25" transform="translate(48,32)"/>
<path d="M0 0 C1.98 0 3.96 0 6 0 C6 1.98 6 3.96 6 6 C4.02 6 2.04 6 0 6 C0 4.02 0 2.04 0 0 Z " fill="#FFB300" transform="translate(36,32)"/>
<path d="M0 0 C1.98 0 3.96 0 6 0 C6 1.98 6 3.96 6 6 C4.02 6 2.04 6 0 6 C0 4.02 0 2.04 0 0 Z " fill="#FFFFFF" transform="translate(30,32)"/>
<path d="M0 0 C1.98 0 3.96 0 6 0 C6 1.98 6 3.96 6 6 C4.02 6 2.04 6 0 6 C0 4.02 0 2.04 0 0 Z " fill="#AF5D25" transform="translate(18,32)"/>
<path d="M0 0 C1.98 0 3.96 0 6 0 C6 1.98 6 3.96 6 6 C4.02 6 2.04 6 0 6 C0 4.02 0 2.04 0 0 Z " fill="#9B351E" transform="translate(42,26)"/>
<path d="M0 0 C1.98 0 3.96 0 6 0 C6 1.98 6 3.96 6 6 C4.02 6 2.04 6 0 6 C0 4.02 0 2.04 0 0 Z " fill="#AF5D25" transform="translate(48,14)"/>
<path d="M0 0 C1.98 0 3.96 0 6 0 C6 1.98 6 3.96 6 6 C4.02 6 2.04 6 0 6 C0 4.02 0 2.04 0 0 Z " fill="#9B351E" transform="translate(54,8)"/>
</svg>
